<?xml version="1.0" encoding="UTF-8"?>
<svg width="27px" height="27px" viewBox="0 0 27 27" version="1.1" xmlns="http://www.w3.org/2000/svg" xmlns:xlink="http://www.w3.org/1999/xlink">
    <!-- Generator: sketchtool 54.1 (76490) - https://sketchapp.com -->
    <title>26E833E8-C069-4051-87C6-0641297A0352</title>
    <desc>Created with sketchtool.</desc>
    <defs>
        <path d="M11.9418642,1.14854999 C11.5025499,1.34362856 11.0300214,1.47537856 10.5349071,1.53427856 C11.04065,1.23114285 11.4296999,0.751307137 11.6121571,0.178914284 C11.1391857,0.459685711 10.6150642,0.663842852 10.0568428,0.773892851 C9.6095571,0.297378569 8.9725071,0 8.26792139,0 C6.91499283,0 5.81781426,1.09717856 5.81781426,2.4498857 C5.81781426,2.64230712 5.83951426,2.82874998 5.88114283,3.00810712 C3.84510713,2.90647141 2.04024285,1.93107856 0.831242853,0.448171425 C0.620664283,0.810649994 0.499764283,1.23136428 0.499764283,1.68019999 C0.499764283,2.52982141 0.932214281,3.28046426 1.58919285,3.71933569 C1.18796428,3.70693569 0.810207139,3.59599997 0.479835712,3.41287855 L0.479835712,3.44365712 C0.479835712,4.63051425 1.32458571,5.62096424 2.44501427,5.8461571 C2.23974999,5.90173567 2.02252856,5.93251424 1.79932856,5.93251424 C1.64189285,5.93251424 1.48777856,5.91679281 1.33853571,5.8880071 C1.65030714,6.86140709 2.55506427,7.56953566 3.62677856,7.58990708 C2.78889284,8.24688565 1.73245714,8.63859279 0.58390714,8.63859279 C0.386392855,8.63859279 0.191535713,8.62663565 0,8.60427136 C1.08411428,9.29889279 2.37194285,9.70454993 3.75609284,9.70454993 C8.26238568,9.70454993 10.7264428,5.97192853 10.7264428,2.73397855 C10.7264428,2.62813569 10.7235642,2.52229284 10.7198,2.41644998 C11.1976428,2.0716857 11.6125999,1.64012142 11.9418642,1.14854999 Z" id="path-1"></path>
    </defs>
    <g id="Page-1" stroke="none" stroke-width="1" fill="none" fill-rule="evenodd">
        <g id="homepage-copy" transform="translate(-1134.000000, -1564.000000)">
            <g id="Group-4" transform="translate(0.000000, 1507.000000)">
                <g id="Group" transform="translate(1132.000000, 55.000000)">
                    <g id="deezer-copy-12">
                        <g id="Group" transform="translate(2.214286, 2.214286)">
                            <g id="fd" fill="#FFFFFF" fill-rule="nonzero">
                                <rect id="Rectangle" x="0" y="0" width="26.5714283" height="26.5714283"></rect>
                            </g>
                            <g id="color-ic" transform="translate(7.307143, 8.635714)">
                                <mask id="mask-2" fill="white">
                                    <use xlink:href="#path-1"></use>
                                </mask>
                                <use id="Mask" fill="#FFFFFF" xlink:href="#path-1"></use>
                                <g mask="url(#mask-2)" fill="#000000" fill-rule="nonzero" id="Rectangle">
                                    <g transform="translate(-7.307143, -8.635714)">
                                        <rect x="0" y="0" width="26.5714283" height="26.5714283"></rect>
                                    </g>
                                </g>
                            </g>
                        </g>
                    </g>
                </g>
            </g>
        </g>
    </g>
</svg>